<?xml version="1.0" encoding="UTF-8" standalone="no"?>
<svg
   version="1.1"
   style="display: block;"
   viewBox="0 0 2500 327"
   width="2500"
   height="327"
   id="svg18"
   sodipodi:docname="ekoncepto-logo branco.svg"
   inkscape:version="1.4.2 (f4327f4, 2025-05-13)"
   xmlns:inkscape="http://www.inkscape.org/namespaces/inkscape"
   xmlns:sodipodi="http://sodipodi.sourceforge.net/DTD/sodipodi-0.dtd"
   xmlns="http://www.w3.org/2000/svg"
   xmlns:svg="http://www.w3.org/2000/svg">
  <defs
     id="defs18" />
  <sodipodi:namedview
     id="namedview18"
     pagecolor="#ffffff"
     bordercolor="#000000"
     borderopacity="0.25"
     inkscape:showpageshadow="2"
     inkscape:pageopacity="0.0"
     inkscape:pagecheckerboard="0"
     inkscape:deskcolor="#d1d1d1"
     inkscape:zoom="0.3546"
     inkscape:cx="1104.0609"
     inkscape:cy="142.41399"
     inkscape:window-width="1920"
     inkscape:window-height="991"
     inkscape:window-x="-9"
     inkscape:window-y="-9"
     inkscape:window-maximized="1"
     inkscape:current-layer="svg18" />
  <path
     d="m 2340.4648,12.982422 c -5.0068,0.168358 -10.0432,0.575475 -15.0957,1.222656 -40.44,5.1456 -77.2487,25.983378 -102.4687,58.017578 -26.15,33.476604 -37.8111,76.033974 -32.3711,118.167964 5.46,41.927 27.4007,79.95025 60.9707,105.65625 18.55,14.52401 40.4495,24.15391 63.6895,28.00391 7.24,1.187 16.0096,1.05722 22.9296,2.94922 h 15.5918 c 7.37,-1.923 16.04,-1.79141 23.67,-3.06641 22.48,-3.758 44.2586,-14.64117 62.1386,-28.57617 28.14,-21.933 48.7707,-52.54764 56.3907,-87.55664 2.19,-10.018 2.8398,-20.01834 4.0898,-30.15234 v -14.15039 c -1.12,-8.715 -1.3003,-17.68993 -3.0703,-26.29493 -7.7,-37.425095 -29.4595,-69.761867 -59.5195,-93.013667 -28.2538,-21.858112 -61.8976,-32.385536 -96.9454,-31.207031 z m 8.4141,57.191406 c 46.4495,1.9326 86.7206,36.176122 94.5606,83.826172 8.97,54.458 -27.8103,105.90587 -82.2403,115.04687 -54.68,9.18401 -106.4199,-27.80362 -115.4199,-82.51562 -9.01,-54.711 28.1506,-106.328344 82.8906,-115.152344 6.8113,-1.097862 13.5734,-1.481164 20.209,-1.205078 z"
     id="path20"
     style="fill:#ffffff;fill-opacity:1" />
  <path
     transform="translate(0,0)"
     fill="#ffffff"
     d="M 1391.37 327 C 1380.34 325.182 1369.26 324.804 1358.26 322.433 C 1322.07 314.633 1290.6 292.63 1269.12 262.674 C 1244.03 227.686 1236.87 182.293 1243.78 140.374 C 1250.35 100.542 1272.86 66.286 1305.52 42.9296 C 1341.11 17.9134 1385.14 7.95035 1428.05 15.2039 C 1467.98 21.6961 1504.36 42.0275 1530.81 72.6389 C 1518.34 85.9486 1504.08 97.4945 1491.71 110.877 C 1466.09 85.3446 1436.39 67.8092 1399.26 67.8689 C 1371.78 67.9132 1346.51 78.2687 1327.06 97.8206 C 1307.82 117.167 1297.91 142.527 1298 169.687 C 1298.08 197.034 1307.05 223.583 1326.77 243.09 C 1346.68 262.786 1374.24 272.04 1401.91 271.854 C 1437.61 271.614 1465.77 255.046 1490.22 230.176 C 1490.64 229.75 1491.05 229.315 1491.44 228.871 C 1503.91 242.58 1516.6 256.524 1529.72 269.602 C 1504.59 294.695 1474.8 315.946 1439.45 323.154 C 1429.51 325.182 1418.36 324.446 1408.75 327 L 1391.37 327 z"
     id="path5" />
  <path
     transform="translate(0,0)"
     fill="#0FEA81"
     d="M 0 19.9012 L 115.264 19.8354 C 125.876 19.8322 154.355 17.976 163.277 20.6331 L 163.336 76.0274 L 56.9885 76.0552 C 57.1451 94.181 57.1846 112.308 57.107 130.434 L 163.362 130.357 L 163.307 184.526 L 57.1054 184.591 C 57.1004 210.924 57.5924 237.376 57.0761 263.698 C 69.9202 262.291 83.428 263.05 96.354 263.068 L 163.737 263.213 L 163.747 319.564 L 0 319.57 L 0 19.9012 z"
     id="path6" />
  <path
     transform="translate(0,0)"
     fill="#6EB78D"
     d="M 0 19.9012 L 115.264 19.8354 C 125.876 19.8322 154.355 17.976 163.277 20.6331 C 109.244 21.7018 55.0179 20.8334 0.965205 20.8122 L 0.989898 318.451 C 19.1303 319.957 38.1333 318.831 56.3554 318.823 L 162.843 318.796 L 162.855 264.24 C 138.581 264.062 114.305 264.04 90.0308 264.175 C 79.9178 264.195 66.8665 265.71 57.0761 263.698 C 69.9202 262.291 83.428 263.05 96.354 263.068 L 163.737 263.213 L 163.747 319.564 L 0 319.57 L 0 19.9012 z"
     id="path7" />
  <path
     transform="translate(0,0)"
     fill="#ffffff"
     d="M 960.97 20.2203 L 1014.93 20.2203 C 1033.44 50.2793 1053.59 79.4675 1072.94 108.999 C 1096.34 145.249 1119.96 181.356 1143.8 217.319 L 1143.8 20.2203 L 1200.39 20.2203 L 1200.39 318.964 C 1182.09 319.726 1163.63 319.235 1145.32 319.195 C 1140.37 309.826 1133.74 300.884 1127.95 292.002 L 1094.59 241.05 C 1068.95 201.96 1044.39 161.767 1017.61 123.476 L 1017.61 319.195 L 960.909 319.195 L 960.97 20.2203 z"
     id="path8" />
  <path
     transform="translate(0,0)"
     fill="#ffffff"
     d="M 391.09 20.2203 L 448.78 20.2174 L 448.777 123.191 C 474.168 87.9717 502.921 54.6964 529.392 20.2203 L 597.749 20.2187 C 587.796 35.6875 574.642 50.3358 563.278 64.8816 L 493.658 154.079 C 507.879 173.327 521.041 193.577 534.635 213.284 C 548.742 233.733 563.486 253.97 576.902 274.871 C 587.204 289.576 597.405 304.351 607.505 319.195 L 540.536 319.204 C 511.173 274.543 479.535 230.963 448.797 187.213 L 448.777 319.199 L 391.038 319.195 L 391.09 20.2203 z"
     id="path9" />
  <path
     transform="translate(0,0)"
     fill="#ffffff"
     d="M 736.102 1.30626 C 750.59 -2.10948 783.138 2.1942 798.145 6.53727 C 825.159 14.3554 864.256 36.89 878.188 62.1684 C 868.862 73.1275 861.115 86.7258 852.77 98.5303 C 846.335 89.8586 839.546 81.2706 831.811 73.7138 C 810.446 52.8394 782.766 42.6653 753.068 43.0377 C 721.333 43.4356 691.593 55.0763 669.328 77.9332 C 647.538 100.241 635.663 130.392 636.387 161.567 C 636.661 192.39 649.408 221.787 671.72 243.053 C 695.396 266.052 723.538 278.601 756.798 278.099 C 787.977 277.628 813.755 264.083 835.095 242.088 C 856.47 220.057 869.898 190.052 869.439 159.2 C 865.604 159.267 860.407 159.865 856.746 158.648 C 853.711 157.639 853.193 155.983 851.851 153.319 C 854.383 144.015 883.11 103.7 890.47 97.18 C 891.109 97.7369 891.738 98.3045 892.358 98.8826 C 899.443 105.492 929.087 145.871 929.287 154.309 C 929.315 155.45 928.87 155.884 928.095 156.665 C 924.803 159.983 917.257 159.213 912.806 159.264 C 910.019 195.169 901.831 228.114 879.489 257.238 C 854.554 289.74 813.017 312.72 772.466 318.043 C 732.617 323.274 689.181 311.499 657.331 287.042 C 623.151 260.797 600.265 223.272 594.677 180.365 C 589.215 138.426 600.577 96.0311 626.278 62.4438 C 653.789 26.7351 691.823 7.02998 736.102 1.30626 z"
     id="path10" />
  <path
     d="m 1868.4805,20.005859 c -26.155,-1.116687 -52.9107,0.174144 -71.8907,0.214844 V 319.19531 h 56.5997 V 195.8418 l 0.6601,-2.35547 c 6.1,-1.622 14.5109,-0.69661 20.9609,-1.09961 36.16,-2.259 68.3186,-6.53749 88.5586,-41.39649 11.97,-20.626 13.7502,-47.0482 7.6602,-69.845699 -5.19,-19.4537 -16.6298,-36.711956 -34.2598,-46.910156 -16.58,-9.58785 -42.134,-13.111828 -68.289,-14.228516 z m -15.291,56.083985 c 16.79,-0.0664 41.7699,-2.590113 55.6699,7.992187 6.16,4.6971 9.6304,11.847413 10.6504,19.445309 1.32,9.855 -2.5802,17.94207 -8.4102,25.53907 -17.23,10.996 -38.2401,8.97115 -57.9101,8.91015 z"
     style="fill:#ffffff;fill-opacity:1"
     id="path21" />
  <path
     transform="translate(0,0)"
     fill="#ffffff"
     d="M 1581.49 20.2203 L 1744.08 20.2203 L 1744.08 76.0866 L 1638.14 76.0866 L 1638.14 130.294 L 1744.08 130.292 L 1744.08 184.793 L 1638.14 184.792 L 1638.14 213.5 L 1638.14 263.424 L 1744.08 263.422 L 1744.08 319.195 L 1581.49 319.195 L 1581.49 20.2203 z"
     id="path13" />
  <path
     transform="translate(0,0)"
     fill="#ffffff"
     d="M 2000.67 20.2203 L 2166.01 20.2173 L 2166.01 76.9785 L 2111.52 76.9785 L 2111.52 264.5 L 2111.52 319.197 L 2053.26 319.195 L 2053.26 76.977 L 2000.67 76.9785 L 2000.67 20.2203 z"
     id="path14" />
  <path
     transform="translate(0,0)"
     fill="#0FEA81"
     d="M 806.742 103.421 C 812.791 103.385 824.049 102.249 828.574 106.689 C 832.507 110.548 831.025 199.255 831.034 212.078 C 835.571 206.972 839.923 201.438 843.525 195.633 C 845.47 192.499 846.743 187.705 849.267 185.172 C 849.302 185.137 849.337 185.104 849.372 185.07 L 849.36 185.07 C 849.486 185.38 849.596 185.695 849.672 186.022 C 851.709 194.838 837.221 220.338 832.138 228.296 C 825.243 236.18 807.392 254.09 797.279 256.032 C 795.769 256.321 795.521 256.02 794.285 255.19 C 793.907 239.391 792.887 112.503 796.774 106.564 C 797.995 104.697 804.392 103.956 806.742 103.421 z"
     id="path15" />
  <path
     transform="translate(0,0)"
     fill="#0FEA81"
     d="M 217.819 183.151 L 320.367 183.123 C 320.785 200.398 320.453 217.752 320.45 235.035 C 308.694 236.161 296.332 235.408 284.509 235.403 L 217.798 235.346 L 217.819 183.151 z"
     id="path16" />
  <path
     transform="translate(0,0)"
     fill="#0FEA81"
     d="M 740.483 149.2 C 746.923 149.168 762.191 147.371 767.479 150.7 C 769.126 151.737 769.567 154.333 769.994 156.175 C 772.322 166.205 772.671 257.097 769.89 261.528 L 765.476 262.239 C 755.211 262.667 744.931 261.602 734.722 260.689 C 734.558 243.624 731.77 164.141 735.528 153.894 C 736.601 150.967 737.836 150.47 740.483 149.2 z"
     id="path17" />
  <path
     transform="translate(0,0)"
     fill="#0FEA81"
     d="M 652.234 173.839 C 656.398 178.165 661.026 191.428 664.372 197.331 C 667.135 202.205 670.713 206.335 674.436 210.484 C 674.59 204.416 674.172 198.337 674.105 192.269 C 674.066 188.718 674.435 184.719 677.099 182.072 C 680.776 178.418 686.627 178.555 691.443 178.579 C 695.571 178.6 705.846 177.868 708.747 180.943 C 714.286 186.814 712.058 219.365 711.978 228.25 C 711.865 232.924 712.355 253.248 710.019 256.337 C 709.888 256.338 709.757 256.34 709.626 256.334 C 701.403 255.965 683.792 239.595 678.128 233.292 C 664.524 218.153 651.11 194.621 652.234 173.839 z"
     id="path18" />
</svg>
