<svg version="1.1" xmlns="http://www.w3.org/2000/svg" style="display: block;" viewBox="0 0 2048 2048" width="640" height="640">
<path transform="translate(0,0)" fill="rgb(255,255,255)" d="M 0 0 L 2048 0 L 2048 2045.64 L 2048 2048 L 0 2048 L 0 2045.63 L 0 0 z"/>
<path transform="translate(0,0)" fill="rgb(0,0,0)" d="M 0 2045.63 L 1329.83 2045.46 L 1796.65 2045.44 C 1880.41 2045.44 1964.24 2044.7 2048 2045.64 L 2048 2048 L 0 2048 L 0 2045.63 z"/>
<path transform="translate(0,0)" fill="rgb(0,0,0)" d="M 989.253 100.483 C 1096.83 101.676 1202.46 116.686 1304.38 151.973 C 1440.56 199.12 1563.34 281.253 1665.19 382.428 C 1690.06 407.132 1718.74 435.607 1734.17 467.379 C 1697.95 522.403 1659.62 576.338 1622.5 630.789 C 1609.99 649.128 1596.11 666.63 1584.47 685.535 C 1522.33 609.239 1469.86 537.531 1388.97 478.561 C 1277.61 397.378 1162.76 361.002 1025.28 355.832 C 976.348 353.812 927.335 356.433 878.898 363.658 C 693.274 392.699 534.106 488.038 423.195 640.052 C 314.487 789.689 269.682 976.384 298.637 1159.06 C 317.548 1278.7 370.727 1398.27 448.886 1491.09 C 492.86 1543.31 547.714 1591.57 602.945 1631.56 C 724.421 1719.5 864.188 1758.02 1013.38 1754.71 C 1046.7 1753.97 1080.15 1752.1 1113.08 1746.78 C 1238.93 1726.45 1343.36 1664.34 1436.93 1579.77 C 1477.66 1542.96 1514.54 1504.04 1546.61 1459.41 C 1616.59 1362.02 1675.38 1229 1682 1108.01 C 1682.83 1092.78 1685.09 1074.55 1682.31 1059.56 C 1681.7 1056.27 1681.28 1053.37 1678.76 1050.95 C 1667.24 1039.9 1605.63 1050.24 1589.08 1037.52 C 1583.36 1033.13 1581.7 1026.95 1580.71 1020.11 C 1576.24 989.235 1602.43 961.628 1619.43 938.521 C 1649.76 894.929 1679.25 850.759 1707.88 806.035 C 1727.76 775.357 1747.08 742.833 1770.26 714.561 C 1779.47 703.327 1792.59 688.286 1808.15 687.256 C 1816.39 686.71 1824.5 692.28 1830.52 697.381 C 1848.54 712.636 1862.78 735.625 1876.21 754.914 C 1894.27 780.842 1911.67 807.219 1929.55 833.271 L 1984.6 914.134 C 1999.43 935.837 2015.04 957.514 2027.9 980.45 C 2033.86 991.068 2041.46 1004.91 2042.13 1017.14 C 2042.41 1022.29 2041.44 1028.25 2037.78 1032.13 C 2022.72 1048.08 1962.07 1046.38 1939.46 1047.26 C 1936.37 1096.9 1935.05 1147.02 1927.28 1196.2 C 1919.93 1242.77 1908.11 1287.97 1893.98 1332.91 C 1849.7 1473.69 1780.81 1600.57 1677.75 1707.06 C 1558.29 1830.48 1402.37 1914.66 1238.64 1963.33 C 1161.97 1986.13 1086.67 2000.78 1006.47 2001.95 C 752.907 2004.97 508.394 1907.8 326.077 1731.55 C 143.803 1553.74 37.0534 1322.76 34.1829 1066.89 C 29.1067 810.763 128.107 563.524 308.557 381.684 C 490.935 195.532 730.117 103.288 989.253 100.483 z"/>
<path transform="translate(0,0)" fill="rgb(135,195,37)" d="M 1312.4 716.415 C 1312.63 716.384 1312.86 716.34 1313.09 716.32 C 1339.38 714.048 1419.63 713.364 1438.67 729.362 C 1447.28 736.592 1450.88 748.681 1452.24 759.462 C 1454.49 777.282 1453.29 795.513 1453.16 813.423 C 1452.96 840.014 1452.95 866.606 1453.13 893.198 L 1453.95 1192.36 L 1453.87 1295.26 C 1453.92 1315.27 1453.41 1335.5 1454.84 1355.46 C 1489.92 1329.59 1517.41 1281.48 1538.89 1244.23 C 1545.07 1233.5 1551.87 1222.71 1557.18 1211.55 C 1563.25 1198.8 1566.13 1184.7 1572.25 1172.14 L 1572.89 1172.6 C 1556.83 1265.88 1530.74 1350.06 1479.12 1430.24 C 1435.49 1494.02 1382.03 1544.57 1317.77 1587.32 C 1291.57 1604.74 1264.38 1620.77 1234.5 1631.03 C 1234.38 1630.21 1234.28 1629.4 1234.18 1628.58 C 1231.24 1602.47 1233.4 1566.03 1233.48 1538.68 L 1234.13 1354.38 L 1235.66 977.777 C 1235.92 907.046 1234.7 836.192 1236.26 765.477 C 1236.42 758.4 1235.89 744.234 1240.69 738.694 C 1241 738.335 1241.34 738.004 1241.66 737.655 C 1258.06 719.863 1289.8 718.278 1312.4 716.415 z"/>
<path transform="translate(0,0)" fill="rgb(135,195,37)" d="M 929.082 987.398 C 930.216 987.348 931.351 987.315 932.487 987.299 C 955.96 987.204 979.435 987.245 1002.91 987.423 C 1022.19 987.477 1042.87 985.931 1061.86 989.793 C 1069.09 991.264 1077.09 994.051 1082.3 999.498 C 1089.58 1007.1 1092.29 1018.17 1093.38 1028.35 C 1096.87 1061.03 1095.57 1094.58 1095.61 1127.41 L 1096.02 1275.51 L 1097.04 1534.39 C 1097.15 1576.05 1098.36 1617.85 1097.2 1659.49 C 1080.21 1660.89 1063.19 1661.96 1046.16 1662.69 C 988.716 1664.28 932.95 1659.71 876.87 1646.91 C 878.478 1506.02 876.24 1364.95 876.19 1224.03 L 875.961 1114.29 C 875.909 1089.46 875.111 1064.3 877.22 1039.55 C 878.279 1027.12 879.993 1010.94 888.475 1001.17 C 898.495 989.621 914.87 988.398 929.082 987.398 z"/>
<path transform="translate(0,0)" fill="rgb(135,195,37)" d="M 383.224 1119.75 C 388.182 1124.31 405.876 1171.64 410.686 1182.56 C 436.392 1240.93 468.711 1305.43 517.648 1347.88 C 521.594 1318.87 519.029 1276.41 518.936 1245.96 C 518.889 1230.75 518.546 1215.1 521.656 1200.14 C 523.557 1191 527.035 1181.8 533.67 1175.02 C 546.142 1162.28 571.383 1161.74 587.984 1161.37 C 604.076 1161.01 620.134 1161.77 636.222 1161.87 C 657.208 1162 680.349 1159.74 700.83 1164.3 C 709.987 1166.34 719.146 1170.24 725.859 1176.95 C 731.738 1182.82 735.486 1190.12 737.372 1198.17 C 744.712 1229.51 743.241 1285.3 743.279 1318.88 C 743.457 1360.17 743.321 1401.46 742.872 1442.75 C 741.214 1486.21 741.082 1529.98 740.365 1573.49 C 740.048 1592.72 740.239 1611.91 739.104 1631.12 C 701.261 1624.11 632.4 1574.78 601.91 1548.96 C 497.721 1460.71 413.897 1329.33 388.934 1194.05 C 384.396 1169.46 385.259 1144.57 383.224 1119.75 z"/>
</svg>