<?xml version="1.0" encoding="UTF-8"?>
<svg xmlns="http://www.w3.org/2000/svg" xmlns:xlink="http://www.w3.org/1999/xlink" width="134px" height="42px" viewBox="0 0 134 42" version="1.1">
<g id="surface1">
<path style=" stroke:none;fill-rule:nonzero;fill:rgb(16.078431%,19.215686%,44.705882%);fill-opacity:1;" d="M 132.488281 9.820312 C 130.277344 7.617188 126.703125 7.617188 124.488281 9.820312 C 123.601562 10.921875 123.128906 12.304688 123.160156 13.71875 C 123.125 15.144531 123.59375 16.53125 124.488281 17.640625 C 126.714844 19.816406 130.265625 19.816406 132.488281 17.640625 C 133.378906 16.53125 133.847656 15.140625 133.808594 13.71875 C 133.839844 12.304688 133.371094 10.925781 132.488281 9.820312 M 130.308594 16.128906 C 129.851562 16.667969 129.179688 16.976562 128.476562 16.976562 C 127.769531 16.976562 127.097656 16.667969 126.640625 16.128906 C 126.164062 15.417969 125.9375 14.574219 125.988281 13.71875 C 125.9375 12.867188 126.167969 12.019531 126.640625 11.308594 C 127.101562 10.773438 127.769531 10.46875 128.476562 10.46875 C 129.179688 10.46875 129.851562 10.773438 130.308594 11.308594 C 130.777344 12.023438 131.003906 12.867188 130.949219 13.71875 C 131.003906 14.570312 130.78125 15.417969 130.308594 16.128906 "/>
<path style=" stroke:none;fill-rule:nonzero;fill:rgb(16.078431%,19.215686%,44.705882%);fill-opacity:1;" d="M 110 8.898438 C 109.066406 8.4375 108.039062 8.207031 107 8.21875 C 105.605469 8.074219 104.222656 8.582031 103.261719 9.601562 C 102.785156 10.257812 102.515625 11.039062 102.488281 11.851562 L 105.128906 11.851562 C 105.160156 11.484375 105.296875 11.140625 105.519531 10.851562 C 105.890625 10.492188 106.398438 10.316406 106.910156 10.371094 C 107.363281 10.34375 107.816406 10.429688 108.230469 10.621094 C 108.542969 10.796875 108.722656 11.140625 108.691406 11.5 C 108.6875 11.863281 108.441406 12.183594 108.089844 12.28125 C 107.738281 12.40625 107.371094 12.488281 107 12.519531 L 106.070312 12.628906 C 105.226562 12.703125 104.40625 12.933594 103.648438 13.308594 C 102.667969 13.878906 102.089844 14.957031 102.160156 16.089844 C 102.109375 16.957031 102.449219 17.800781 103.089844 18.390625 C 103.757812 18.929688 104.59375 19.214844 105.449219 19.199219 C 111.449219 19.46875 111.339844 16.058594 111.449219 15.351562 L 111.449219 11.46875 C 111.542969 10.394531 110.96875 9.375 110 8.898438 M 108.609375 14.851562 C 108.675781 15.570312 108.382812 16.273438 107.828125 16.738281 C 107.347656 17.078125 106.769531 17.261719 106.179688 17.261719 C 105.820312 17.277344 105.464844 17.164062 105.179688 16.941406 C 104.898438 16.6875 104.753906 16.316406 104.789062 15.941406 C 104.765625 15.460938 105.011719 15.011719 105.429688 14.78125 C 105.828125 14.59375 106.253906 14.46875 106.691406 14.410156 L 107.308594 14.300781 C 107.558594 14.253906 107.800781 14.191406 108.039062 14.109375 C 108.226562 14.039062 108.402344 13.949219 108.570312 13.839844 Z M 108.609375 14.851562 "/>
<path style=" stroke:none;fill-rule:nonzero;fill:rgb(16.078431%,19.215686%,44.705882%);fill-opacity:1;" d="M 96.429688 10.550781 C 97.003906 10.511719 97.5625 10.746094 97.941406 11.179688 C 98.160156 11.496094 98.300781 11.859375 98.351562 12.238281 L 101.289062 12.238281 C 101.273438 11.019531 100.703125 9.875 99.738281 9.128906 C 98.722656 8.507812 97.542969 8.203125 96.351562 8.25 C 94.925781 8.179688 93.539062 8.722656 92.539062 9.738281 C 91.5625 10.902344 91.070312 12.394531 91.160156 13.910156 C 91.097656 15.308594 91.542969 16.679688 92.410156 17.78125 C 93.417969 18.84375 94.851562 19.390625 96.308594 19.269531 C 97.855469 19.371094 99.351562 18.699219 100.308594 17.480469 C 100.871094 16.816406 101.222656 15.996094 101.308594 15.128906 L 98.328125 15.128906 C 98.292969 15.617188 98.117188 16.082031 97.820312 16.46875 C 97.441406 16.847656 96.910156 17.035156 96.378906 16.980469 C 95.515625 17.039062 94.722656 16.503906 94.449219 15.679688 C 94.238281 15.09375 94.136719 14.472656 94.160156 13.851562 C 94.136719 13.195312 94.234375 12.539062 94.449219 11.921875 C 94.730469 11.066406 95.550781 10.503906 96.449219 10.550781 "/>
<path style=" stroke:none;fill-rule:nonzero;fill:rgb(16.078431%,19.215686%,44.705882%);fill-opacity:1;" d="M 90.371094 8.25 C 84.371094 8.25 84.691406 13.601562 84.691406 13.601562 L 84.691406 19 L 87.429688 19 L 87.429688 13.941406 C 87.394531 13.304688 87.5 12.667969 87.738281 12.078125 C 88.207031 11.300781 89.097656 10.875 90 11 L 90.789062 11 L 90.789062 8.269531 L 90.421875 8.269531 "/>
<path style=" stroke:none;fill-rule:nonzero;fill:rgb(16.078431%,19.215686%,44.705882%);fill-opacity:1;" d="M 80.300781 16.199219 C 80.195312 16.351562 80.070312 16.488281 79.929688 16.609375 C 79.480469 16.925781 78.9375 17.074219 78.390625 17.03125 C 77.882812 17.058594 77.378906 16.9375 76.941406 16.679688 C 76.210938 16.199219 75.789062 15.371094 75.828125 14.5 L 83.410156 14.5 C 83.429688 13.808594 83.398438 13.117188 83.320312 12.429688 C 83.210938 11.660156 82.925781 10.925781 82.488281 10.28125 C 82.050781 9.601562 81.425781 9.070312 80.691406 8.738281 C 79.917969 8.402344 79.082031 8.234375 78.238281 8.25 C 76.855469 8.191406 75.507812 8.714844 74.519531 9.691406 C 73.5 10.820312 72.980469 12.320312 73.078125 13.839844 C 72.929688 15.398438 73.519531 16.9375 74.671875 18 C 75.703125 18.847656 77.003906 19.300781 78.339844 19.28125 C 79.804688 19.367188 81.234375 18.816406 82.261719 17.769531 C 82.703125 17.332031 83.03125 16.789062 83.210938 16.191406 Z M 76.621094 11.089844 C 77.054688 10.675781 77.640625 10.460938 78.238281 10.5 C 78.832031 10.476562 79.410156 10.679688 79.859375 11.058594 C 80.320312 11.480469 80.578125 12.078125 80.578125 12.699219 L 75.890625 12.699219 C 75.953125 12.097656 76.210938 11.535156 76.621094 11.089844 "/>
<path style=" stroke:none;fill-rule:nonzero;fill:rgb(16.078431%,19.215686%,44.705882%);fill-opacity:1;" d="M 72 19 L 69.5 19 L 69.5 12.699219 C 69.574219 12.179688 69.410156 11.652344 69.050781 11.265625 C 68.695312 10.878906 68.183594 10.671875 67.660156 10.699219 C 67.132812 10.683594 66.625 10.894531 66.261719 11.273438 C 65.898438 11.65625 65.71875 12.175781 65.761719 12.699219 L 65.761719 19 L 63.230469 19 L 63.230469 12.699219 C 63.308594 12.179688 63.148438 11.652344 62.796875 11.265625 C 62.445312 10.878906 61.933594 10.667969 61.410156 10.699219 C 60.882812 10.679688 60.371094 10.890625 60.007812 11.269531 C 59.644531 11.652344 59.464844 12.175781 59.511719 12.699219 L 59.511719 19 L 57 19 L 57 12.789062 C 56.921875 11.585938 57.359375 10.402344 58.195312 9.53125 C 59.035156 8.664062 60.203125 8.1875 61.410156 8.21875 C 62.617188 8.183594 63.769531 8.722656 64.519531 9.671875 C 65.289062 8.742188 66.433594 8.207031 67.640625 8.21875 C 70.371094 8.21875 71.980469 10.101562 71.980469 12.789062 Z M 72 19 "/>
<path style=" stroke:none;fill-rule:nonzero;fill:rgb(16.078431%,19.215686%,44.705882%);fill-opacity:1;" d="M 122.351562 5 C 122.351562 5 119.589844 4.699219 119.589844 6.921875 L 119.589844 9.820312 C 118.976562 8.824219 117.878906 8.226562 116.710938 8.25 C 115.433594 8.207031 114.21875 8.777344 113.429688 9.78125 C 112.550781 11.023438 112.117188 12.527344 112.199219 14.050781 C 112.144531 15.421875 112.589844 16.769531 113.449219 17.839844 C 114.507812 18.824219 115.917969 19.332031 117.359375 19.25 C 122.359375 19.25 122.359375 14.921875 122.359375 14.921875 Z M 119.058594 16.199219 C 118.664062 16.773438 117.996094 17.101562 117.300781 17.058594 C 116.613281 17.101562 115.953125 16.769531 115.578125 16.191406 C 115.167969 15.46875 114.96875 14.640625 115.011719 13.808594 C 114.984375 13.027344 115.179688 12.25 115.570312 11.570312 C 115.941406 10.96875 116.613281 10.625 117.320312 10.671875 C 117.824219 10.667969 118.316406 10.84375 118.699219 11.171875 C 119.421875 11.914062 119.785156 12.9375 119.699219 13.96875 C 119.734375 14.757812 119.523438 15.535156 119.101562 16.199219 "/>
<path style=" stroke:none;fill-rule:nonzero;fill:rgb(16.078431%,19.215686%,44.705882%);fill-opacity:1;" d="M 91.539062 32.460938 C 91.433594 32.617188 91.304688 32.757812 91.160156 32.878906 C 90.707031 33.203125 90.15625 33.355469 89.601562 33.320312 C 89.089844 33.359375 88.578125 33.246094 88.128906 33 C 87.382812 32.503906 86.953125 31.652344 87 30.761719 L 94.628906 30.761719 C 94.652344 30.066406 94.621094 29.371094 94.53125 28.679688 C 94.425781 27.902344 94.144531 27.15625 93.699219 26.511719 C 93.257812 25.855469 92.644531 25.332031 91.929688 25 C 91.152344 24.667969 90.316406 24.5 89.46875 24.511719 C 88.074219 24.460938 86.71875 24.984375 85.71875 25.960938 C 84.695312 27.101562 84.175781 28.609375 84.28125 30.140625 C 84.132812 31.710938 84.722656 33.257812 85.878906 34.328125 C 86.917969 35.183594 88.226562 35.640625 89.570312 35.621094 C 91.042969 35.707031 92.480469 35.148438 93.511719 34.089844 C 93.957031 33.652344 94.285156 33.101562 94.460938 32.5 Z M 87.828125 27.328125 C 88.269531 26.910156 88.863281 26.695312 89.46875 26.730469 C 90.0625 26.710938 90.640625 26.914062 91.089844 27.300781 C 91.566406 27.734375 91.832031 28.355469 91.820312 29 L 87.101562 29 C 87.175781 28.398438 87.429688 27.832031 87.828125 27.378906 "/>
<path style=" stroke:none;fill-rule:nonzero;fill:rgb(16.078431%,19.215686%,44.705882%);fill-opacity:1;" d="M 83.75 24.480469 L 83.621094 24.480469 C 77.488281 24.480469 77.851562 29.910156 77.851562 29.910156 L 77.851562 35.328125 L 80.628906 35.328125 L 80.628906 30.25 C 80.609375 29.601562 80.734375 28.953125 81 28.359375 C 81.472656 27.59375 82.347656 27.171875 83.238281 27.28125 L 84.039062 27.28125 L 84.039062 24.5 L 83.800781 24.5 "/>
<path style=" stroke:none;fill-rule:nonzero;fill:rgb(16.078431%,19.215686%,44.705882%);fill-opacity:1;" d="M 57.109375 23.070312 L 57.109375 35.308594 L 59.71875 35.308594 L 59.71875 21.070312 C 59.71875 21.070312 57.109375 20.96875 57.109375 23.070312 "/>
<path style=" stroke:none;fill-rule:nonzero;fill:rgb(16.078431%,19.215686%,44.705882%);fill-opacity:1;" d="M 61.859375 21.050781 L 64.648438 21.050781 L 64.648438 23.820312 L 61.859375 23.820312 Z M 61.859375 21.050781 "/>
<path style=" stroke:none;fill-rule:nonzero;fill:rgb(16.078431%,19.215686%,44.705882%);fill-opacity:1;" d="M 61.859375 24.769531 L 64.660156 24.769531 L 64.660156 35.339844 L 61.859375 35.339844 Z M 61.859375 24.769531 "/>
<path style=" stroke:none;fill-rule:nonzero;fill:rgb(16.078431%,19.215686%,44.705882%);fill-opacity:1;" d="M 70.261719 35.308594 L 69.640625 33.640625 C 68.640625 30.75 67.640625 27.851562 66.578125 24.898438 L 66.78125 24.820312 C 69.359375 24.640625 69.371094 24.640625 70.078125 27.078125 L 71.71875 32.230469 C 72 31.339844 72.238281 30.550781 72.46875 29.769531 C 72.800781 28.640625 73.109375 27.511719 73.46875 26.378906 C 73.878906 24.941406 74.070312 24.800781 75.609375 24.800781 L 76.949219 24.800781 C 76.359375 26.488281 75.820312 28.070312 75.269531 29.648438 C 74.71875 31.230469 73.808594 33.789062 73.269531 35.308594 Z M 70.261719 35.308594 "/>
<path style=" stroke:none;fill-rule:nonzero;fill:rgb(15.686275%,20%,50.196078%);fill-opacity:1;" d="M 49.691406 20.058594 C 49.691406 11.140625 38.609375 3.871094 24.941406 3.871094 C 11.269531 3.871094 0.191406 11.140625 0.191406 20.058594 L 0.191406 21.058594 C 0.191406 30.519531 9.878906 38.179688 24.941406 38.179688 C 40 38.179688 49.691406 30.46875 49.691406 21 Z M 49.691406 20.058594 "/>
<path style=" stroke:none;fill-rule:nonzero;fill:rgb(100%,80.392157%,0%);fill-opacity:1;" d="M 48.75 20.050781 C 48.75 28.460938 38.089844 35.269531 24.949219 35.269531 C 11.808594 35.269531 1.148438 28.460938 1.148438 20.050781 C 1.148438 11.640625 11.800781 4.820312 25 4.820312 C 38.199219 4.820312 48.800781 11.640625 48.800781 20.050781 "/>
<path style=" stroke:none;fill-rule:nonzero;fill:rgb(100%,100%,100%);fill-opacity:1;" d="M 17.050781 15.25 C 17.050781 15.25 16.800781 15.519531 16.949219 15.710938 C 17.71875 16.304688 18.730469 16.492188 19.660156 16.210938 C 20.570312 15.847656 21.402344 15.316406 22.121094 14.648438 C 22.945312 13.894531 23.894531 13.289062 24.929688 12.859375 C 25.59375 12.613281 26.320312 12.59375 27 12.800781 C 27.679688 13.054688 28.3125 13.421875 28.871094 13.890625 C 30.488281 15.121094 37.039062 20.828125 38.171875 21.820312 C 41.542969 20.363281 45.050781 19.234375 48.640625 18.449219 C 47.988281 15.320312 46.210938 12.539062 43.640625 10.640625 C 39.871094 12.21875 35.261719 13.050781 30.75 10.851562 C 29.21875 10.15625 27.5625 9.777344 25.878906 9.738281 C 22.300781 9.820312 20.75 11.371094 19.109375 13.011719 Z M 17.050781 15.25 "/>
<path style=" stroke:none;fill-rule:nonzero;fill:rgb(100%,100%,100%);fill-opacity:1;" d="M 37.890625 22.441406 C 37.808594 22.371094 30.191406 15.699219 28.460938 14.441406 C 27.855469 13.910156 27.113281 13.566406 26.320312 13.441406 C 25.984375 13.414062 25.644531 13.449219 25.320312 13.539062 C 24.296875 13.921875 23.351562 14.484375 22.53125 15.199219 C 21.746094 15.9375 20.820312 16.507812 19.808594 16.878906 C 18.789062 17.089844 17.726562 16.933594 16.808594 16.429688 C 16.597656 16.300781 16.421875 16.113281 16.308594 15.890625 C 16.183594 15.535156 16.285156 15.136719 16.570312 14.890625 L 18.671875 12.621094 C 18.910156 12.371094 19.160156 12.128906 19.410156 11.890625 C 18.761719 11.984375 18.125 12.125 17.5 12.320312 C 16.773438 12.558594 16.023438 12.699219 15.261719 12.738281 C 14.5 12.640625 13.746094 12.503906 13 12.328125 C 10.910156 11.792969 8.878906 11.058594 6.929688 10.128906 C 4.125 12.027344 2.132812 14.910156 1.359375 18.210938 C 1.789062 18.320312 2.480469 18.53125 2.769531 18.589844 C 9.511719 20.101562 11.621094 21.648438 12 22 C 12.457031 21.488281 13.121094 21.214844 13.804688 21.253906 C 14.488281 21.296875 15.117188 21.648438 15.511719 22.210938 C 15.964844 21.839844 16.535156 21.636719 17.121094 21.640625 C 17.460938 21.640625 17.796875 21.699219 18.121094 21.808594 C 18.710938 22.003906 19.195312 22.433594 19.449219 23 C 19.746094 22.871094 20.066406 22.800781 20.390625 22.800781 C 20.78125 22.808594 21.164062 22.890625 21.519531 23.050781 C 22.535156 23.527344 23.085938 24.644531 22.851562 25.738281 C 22.941406 25.730469 23.03125 25.730469 23.121094 25.738281 C 24.601562 25.738281 25.800781 26.941406 25.800781 28.421875 C 25.796875 28.863281 25.6875 29.300781 25.480469 29.691406 C 26.179688 30.121094 26.988281 30.335938 27.808594 30.308594 C 28.222656 30.3125 28.617188 30.140625 28.898438 29.839844 C 28.96875 29.738281 29.039062 29.628906 28.96875 29.550781 L 27.058594 27.429688 C 27.058594 27.429688 26.75 27.128906 26.851562 27.019531 C 26.949219 26.910156 27.148438 27.019531 27.289062 27.191406 C 28.289062 28 29.449219 29.191406 29.449219 29.191406 C 29.449219 29.191406 29.550781 29.359375 29.988281 29.441406 C 30.519531 29.53125 31.0625 29.40625 31.5 29.089844 C 31.617188 28.984375 31.726562 28.871094 31.828125 28.75 C 32.109375 28.367188 32.085938 27.84375 31.769531 27.488281 L 29.519531 25 C 29.519531 25 29.199219 24.699219 29.308594 24.578125 C 29.421875 24.460938 29.609375 24.628906 29.75 24.75 C 30.460938 25.339844 31.460938 26.339844 32.410156 27.28125 C 33.066406 27.714844 33.925781 27.683594 34.550781 27.199219 C 35.058594 26.925781 35.363281 26.386719 35.339844 25.808594 C 35.296875 25.453125 35.128906 25.125 34.871094 24.878906 L 31.871094 21.820312 C 31.871094 21.820312 31.550781 21.539062 31.660156 21.398438 C 31.769531 21.261719 31.960938 21.449219 32.101562 21.570312 C 33.101562 22.378906 35.691406 24.789062 35.691406 24.789062 C 36.328125 25.191406 37.144531 25.171875 37.761719 24.738281 C 38.15625 24.511719 38.410156 24.105469 38.441406 23.648438 C 38.460938 23.183594 38.273438 22.730469 37.929688 22.410156 "/>
<path style=" stroke:none;fill-rule:nonzero;fill:rgb(100%,100%,100%);fill-opacity:1;" d="M 23.121094 26.320312 C 22.761719 26.375 22.40625 26.453125 22.058594 26.558594 C 22.058594 26.558594 22.058594 26.339844 22.128906 26.230469 C 22.199219 26.121094 22.800781 24.230469 21.289062 23.601562 C 20.589844 23.234375 19.730469 23.363281 19.171875 23.921875 C 19.109375 23.988281 19.078125 23.980469 19.070312 23.921875 C 19.054688 23.203125 18.585938 22.574219 17.898438 22.359375 C 16.929688 22.0625 15.878906 22.4375 15.308594 23.28125 C 15.199219 22.398438 14.40625 21.757812 13.519531 21.835938 C 12.632812 21.914062 11.964844 22.675781 12.003906 23.566406 C 12.046875 24.453125 12.78125 25.152344 13.671875 25.148438 C 14.101562 25.160156 14.515625 24.992188 14.820312 24.691406 C 14.832031 24.707031 14.832031 24.730469 14.820312 24.75 C 14.585938 25.8125 15.171875 26.882812 16.191406 27.261719 C 16.734375 27.464844 17.347656 27.367188 17.800781 27 C 17.929688 26.910156 17.949219 27 17.929688 27.070312 C 17.855469 27.839844 18.351562 28.546875 19.101562 28.738281 C 19.683594 29.03125 20.390625 28.902344 20.828125 28.421875 C 20.980469 28.289062 21.019531 28.308594 21.03125 28.519531 C 21.058594 29.675781 22.015625 30.585938 23.171875 30.558594 C 24.324219 30.53125 25.238281 29.574219 25.210938 28.421875 C 25.199219 27.269531 24.269531 26.339844 23.121094 26.328125 "/>
<path style=" stroke:none;fill-rule:nonzero;fill:rgb(15.686275%,20%,50.196078%);fill-opacity:1;" d="M 38.179688 21.640625 C 35.828125 19.640625 30.410156 14.878906 28.941406 13.769531 C 28.363281 13.289062 27.707031 12.914062 27 12.660156 C 26.695312 12.5625 26.378906 12.511719 26.058594 12.511719 C 25.65625 12.515625 25.253906 12.585938 24.871094 12.710938 C 23.839844 13.140625 22.890625 13.742188 22.058594 14.488281 C 21.363281 15.144531 20.546875 15.664062 19.660156 16.019531 C 19.367188 16.082031 19.070312 16.117188 18.769531 16.121094 C 18.164062 16.171875 17.5625 15.976562 17.101562 15.578125 C 17.101562 15.578125 17.101562 15.441406 17.179688 15.320312 L 19.238281 13.101562 C 20.859375 11.480469 22.390625 9.949219 25.898438 9.871094 L 26.078125 9.871094 C 27.675781 9.949219 29.238281 10.332031 30.691406 11 C 32.652344 11.972656 34.8125 12.480469 37 12.488281 C 39.398438 12.457031 41.757812 11.894531 43.910156 10.839844 C 43.648438 10.609375 43.371094 10.390625 43.078125 10.171875 C 41.171875 11.042969 39.101562 11.515625 37 11.550781 C 34.953125 11.535156 32.933594 11.054688 31.101562 10.140625 C 29.527344 9.417969 27.828125 9.011719 26.101562 8.949219 L 25.898438 8.949219 C 23.808594 8.910156 21.773438 9.621094 20.160156 10.949219 C 19.1875 10.996094 18.226562 11.167969 17.300781 11.46875 C 16.65625 11.691406 15.980469 11.820312 15.300781 11.851562 L 14.539062 11.851562 C 12.0625 11.417969 9.628906 10.75 7.28125 9.851562 C 6.988281 10.058594 6.699219 10.269531 6.429688 10.488281 C 8.957031 11.542969 11.59375 12.308594 14.289062 12.769531 C 14.609375 12.769531 14.960938 12.828125 15.289062 12.828125 C 16.066406 12.792969 16.832031 12.648438 17.570312 12.398438 C 18.011719 12.28125 18.488281 12.148438 19 12.050781 L 18.589844 12.449219 L 16.488281 14.71875 C 16.167969 15.011719 16.054688 15.472656 16.210938 15.878906 C 16.328125 16.136719 16.519531 16.351562 16.761719 16.5 C 17.441406 16.878906 18.210938 17.074219 18.988281 17.058594 C 19.285156 17.0625 19.582031 17.03125 19.871094 16.96875 C 20.90625 16.597656 21.851562 16.015625 22.648438 15.261719 C 23.460938 14.558594 24.386719 14.003906 25.390625 13.621094 C 25.636719 13.554688 25.894531 13.523438 26.148438 13.519531 L 26.351562 13.519531 C 27.121094 13.644531 27.835938 13.992188 28.410156 14.519531 C 30.128906 15.808594 37.761719 22.519531 37.828125 22.519531 C 38.140625 22.808594 38.308594 23.21875 38.289062 23.640625 C 38.269531 24.054688 38.039062 24.433594 37.679688 24.640625 C 37.382812 24.839844 37.035156 24.949219 36.679688 24.949219 C 36.371094 24.949219 36.066406 24.863281 35.800781 24.699219 C 35.800781 24.699219 33.160156 22.28125 32.199219 21.46875 C 32.074219 21.34375 31.914062 21.261719 31.738281 21.230469 C 31.664062 21.230469 31.59375 21.265625 31.550781 21.328125 C 31.390625 21.511719 31.550781 21.769531 31.761719 21.941406 L 34.769531 25 C 35.089844 25.28125 35.246094 25.703125 35.1875 26.125 C 35.125 26.546875 34.855469 26.910156 34.46875 27.089844 C 34.152344 27.3125 33.777344 27.4375 33.390625 27.449219 C 33.078125 27.449219 32.777344 27.355469 32.519531 27.179688 L 32.078125 26.75 C 31.28125 25.960938 30.460938 25.148438 29.851562 24.640625 C 29.726562 24.515625 29.570312 24.4375 29.398438 24.410156 C 29.324219 24.410156 29.253906 24.441406 29.199219 24.488281 C 29.140625 24.570312 29.089844 24.699219 29.261719 24.929688 C 29.304688 24.992188 29.355469 25.054688 29.410156 25.109375 L 31.640625 27.609375 C 31.90625 27.90625 31.925781 28.347656 31.691406 28.671875 L 31.609375 28.769531 C 31.546875 28.84375 31.476562 28.910156 31.398438 28.96875 C 31.085938 29.199219 30.707031 29.324219 30.320312 29.320312 C 30.21875 29.332031 30.121094 29.332031 30.019531 29.320312 C 29.859375 29.304688 29.703125 29.242188 29.578125 29.140625 C 29.460938 29.011719 28.339844 27.871094 27.410156 27.089844 C 27.289062 26.96875 27.136719 26.890625 26.96875 26.859375 C 26.894531 26.863281 26.820312 26.894531 26.769531 26.949219 C 26.589844 27.148438 26.871094 27.449219 26.980469 27.558594 L 28.878906 29.660156 C 28.867188 29.703125 28.84375 29.746094 28.808594 29.78125 C 28.738281 29.878906 28.511719 30.109375 27.808594 30.199219 L 27.558594 30.199219 C 26.90625 30.160156 26.269531 29.972656 25.699219 29.648438 C 25.878906 29.273438 25.96875 28.863281 25.96875 28.449219 C 25.96875 26.886719 24.703125 25.617188 23.140625 25.609375 L 23 25.609375 C 23.164062 24.5 22.578125 23.417969 21.558594 22.949219 C 21.1875 22.785156 20.785156 22.695312 20.378906 22.691406 C 20.082031 22.6875 19.785156 22.742188 19.511719 22.851562 C 19.21875 22.289062 18.71875 21.863281 18.121094 21.671875 C 17.800781 21.554688 17.460938 21.492188 17.121094 21.488281 C 16.550781 21.488281 15.992188 21.664062 15.53125 22 C 15.109375 21.46875 14.476562 21.140625 13.800781 21.105469 C 13.121094 21.066406 12.460938 21.320312 11.980469 21.800781 C 11.390625 21.351562 9.039062 19.859375 2.769531 18.429688 C 2.460938 18.359375 1.769531 18.160156 1.339844 18.039062 C 1.269531 18.371094 1.214844 18.703125 1.179688 19.039062 L 2.558594 19.371094 C 8.96875 20.789062 11.089844 22.269531 11.449219 22.550781 C 11.328125 22.839844 11.261719 23.152344 11.261719 23.46875 C 11.261719 24.800781 12.339844 25.878906 13.671875 25.878906 C 13.816406 25.890625 13.964844 25.890625 14.109375 25.878906 C 14.300781 26.847656 14.988281 27.640625 15.921875 27.96875 C 16.191406 28.078125 16.480469 28.136719 16.769531 28.140625 C 16.957031 28.136719 17.140625 28.113281 17.320312 28.070312 C 17.59375 28.726562 18.136719 29.230469 18.808594 29.460938 C 19.109375 29.585938 19.433594 29.65625 19.761719 29.660156 C 20.007812 29.65625 20.253906 29.613281 20.488281 29.53125 C 20.855469 30.414062 21.636719 31.050781 22.574219 31.230469 C 23.511719 31.410156 24.476562 31.105469 25.140625 30.421875 C 25.867188 30.851562 26.6875 31.097656 27.53125 31.140625 L 27.898438 31.140625 C 28.53125 31.121094 29.121094 30.828125 29.519531 30.339844 C 29.558594 30.292969 29.59375 30.238281 29.621094 30.179688 C 29.871094 30.253906 30.128906 30.292969 30.390625 30.300781 C 30.980469 30.285156 31.550781 30.066406 32 29.679688 C 32.46875 29.375 32.800781 28.898438 32.921875 28.351562 C 33.089844 28.382812 33.265625 28.398438 33.441406 28.398438 C 34 28.382812 34.542969 28.203125 35 27.878906 C 35.714844 27.46875 36.152344 26.703125 36.140625 25.878906 C 36.316406 25.910156 36.492188 25.929688 36.671875 25.929688 C 37.199219 25.925781 37.71875 25.765625 38.160156 25.46875 C 38.738281 25.09375 39.109375 24.46875 39.160156 23.78125 C 39.191406 23.304688 39.078125 22.828125 38.828125 22.421875 C 42.035156 21.113281 45.34375 20.078125 48.71875 19.328125 C 48.71875 18.980469 48.640625 18.640625 48.578125 18.328125 C 45.007812 19.125 41.519531 20.257812 38.160156 21.710938 M 23.121094 30.351562 C 22.078125 30.363281 21.21875 29.539062 21.179688 28.5 C 21.179688 28.410156 21.179688 28.179688 20.96875 28.179688 C 20.878906 28.191406 20.792969 28.234375 20.730469 28.300781 C 20.480469 28.5625 20.140625 28.71875 19.78125 28.730469 C 19.566406 28.726562 19.355469 28.679688 19.160156 28.589844 C 18.050781 28.148438 18.039062 27.390625 18.078125 27.078125 C 18.113281 27.007812 18.113281 26.921875 18.078125 26.851562 L 18 26.789062 L 17.941406 26.789062 C 17.867188 26.792969 17.796875 26.820312 17.738281 26.871094 C 17.472656 27.074219 17.148438 27.1875 16.808594 27.199219 C 16.628906 27.199219 16.449219 27.167969 16.28125 27.101562 C 15.316406 26.757812 14.761719 25.746094 15 24.75 C 15.015625 24.675781 14.992188 24.601562 14.941406 24.550781 L 14.839844 24.46875 L 14.738281 24.558594 C 14.472656 24.828125 14.117188 24.980469 13.738281 24.988281 C 12.921875 25 12.246094 24.363281 12.203125 23.546875 C 12.164062 22.730469 12.773438 22.027344 13.589844 21.957031 C 14.402344 21.882812 15.128906 22.46875 15.230469 23.28125 L 15.28125 23.691406 L 15.5 23.351562 C 15.894531 22.753906 16.546875 22.382812 17.261719 22.351562 C 17.484375 22.355469 17.707031 22.390625 17.921875 22.460938 C 18.542969 22.660156 18.96875 23.226562 18.988281 23.878906 C 18.988281 24.078125 19.140625 24.078125 19.171875 24.078125 C 19.238281 24.078125 19.300781 24.046875 19.339844 23.988281 C 19.632812 23.6875 20.039062 23.519531 20.460938 23.519531 C 20.746094 23.535156 21.027344 23.597656 21.289062 23.710938 C 22.710938 24.320312 22.070312 26.128906 22.058594 26.148438 C 21.941406 26.449219 21.929688 26.578125 22.058594 26.660156 L 22.109375 26.660156 C 22.207031 26.648438 22.300781 26.625 22.390625 26.589844 C 22.632812 26.492188 22.890625 26.433594 23.148438 26.421875 C 24.207031 26.453125 25.058594 27.300781 25.089844 28.359375 C 25.089844 29.429688 24.222656 30.300781 23.148438 30.300781 "/>
</g>
</svg>
